TITLE ""
FILE "Step1_Track36.mp3" MP3
  TRACK 01 AUDIO
    TITLE "Step1_Track36_01"
    INDEX 01 00:00:00
  TRACK 02 AUDIO
    TITLE "Step1_Track36_02"
    INDEX 01 00:00:24
  TRACK 03 AUDIO
    TITLE "Step1_Track36_03"
    INDEX 01 00:02:03
  TRACK 04 AUDIO
    TITLE "Step1_Track36_04"
    INDEX 01 00:02:44
  TRACK 05 AUDIO
    TITLE "Step1_Track36_05"
    INDEX 01 00:03:44
  TRACK 06 AUDIO
    TITLE "Step1_Track36_06"
    INDEX 01 00:03:73
  TRACK 07 AUDIO
    TITLE "Step1_Track36_07"
    INDEX 01 00:07:22
  TRACK 08 AUDIO
    TITLE "Step1_Track36_08"
    INDEX 01 00:07:42
  TRACK 09 AUDIO
    TITLE "Step1_Track36_09"
    INDEX 01 00:08:39
  TRACK 10 AUDIO
    TITLE "Step1_Track36_10"
    INDEX 01 00:08:43
  TRACK 11 AUDIO
    TITLE "Step1_Track36_11"
    INDEX 01 00:12:43
  TRACK 12 AUDIO
    TITLE "Step1_Track36_12"
    INDEX 01 00:12:66
  TRACK 13 AUDIO
    TITLE "Step1_Track36_13"
    INDEX 01 00:13:58
  TRACK 14 AUDIO
    TITLE "Step1_Track36_14"
    INDEX 01 00:14:01
  TRACK 15 AUDIO
    TITLE "Step1_Track36_15"
    INDEX 01 00:17:01
  TRACK 16 AUDIO
    TITLE "Step1_Track36_16"
    INDEX 01 00:17:22
  TRACK 17 AUDIO
    TITLE "Step1_Track36_17"
    INDEX 01 00:18:16
  TRACK 18 AUDIO
    TITLE "Step1_Track36_18"
    INDEX 01 00:18:30
  TRACK 19 AUDIO
    TITLE "Step1_Track36_19"
    INDEX 01 00:21:10
  TRACK 20 AUDIO
    TITLE "Step1_Track36_20"
    INDEX 01 00:21:40
  TRACK 21 AUDIO
    TITLE "Step1_Track36_21"
    INDEX 01 00:22:33
  TRACK 22 AUDIO
    TITLE "Step1_Track36_22"
    INDEX 01 00:22:51
  TRACK 23 AUDIO
    TITLE "Step1_Track36_23"
    INDEX 01 00:25:75
  TRACK 24 AUDIO
    TITLE "Step1_Track36_24"
    INDEX 01 00:26:31
  TRACK 25 AUDIO
    TITLE "Step1_Track36_25"
    INDEX 01 00:27:37
  TRACK 26 AUDIO
    TITLE "Step1_Track36_26"
    INDEX 01 00:27:48
  TRACK 27 AUDIO
    TITLE "Step1_Track36_27"
    INDEX 01 00:30:51
  TRACK 28 AUDIO
    TITLE "Step1_Track36_28"
    INDEX 01 00:31:01
  TRACK 29 AUDIO
    TITLE "Step1_Track36_29"
    INDEX 01 00:32:10
  TRACK 30 AUDIO
    TITLE "Step1_Track36_30"
    INDEX 01 00:32:20
  TRACK 31 AUDIO
    TITLE "Step1_Track36_31"
    INDEX 01 00:36:16
  TRACK 32 AUDIO
    TITLE "Step1_Track36_32"
    INDEX 01 00:36:49
  TRACK 33 AUDIO
    TITLE "Step1_Track36_33"
    INDEX 01 00:37:43
  TRACK 34 AUDIO
    TITLE "Step1_Track36_34"
    INDEX 01 00:37:53
  TRACK 35 AUDIO
    TITLE "Step1_Track36_35"
    INDEX 01 00:41:01
  TRACK 36 AUDIO
    TITLE "Step1_Track36_36"
    INDEX 01 00:41:45
  TRACK 37 AUDIO
    TITLE "Step1_Track36_37"
    INDEX 01 00:42:46
  TRACK 38 AUDIO
    TITLE "Step1_Track36_38"
    INDEX 01 00:42:58
  TRACK 39 AUDIO
    TITLE "Step1_Track36_39"
    INDEX 01 00:45:72
  TRACK 40 AUDIO
    TITLE "Step1_Track36_40"
    INDEX 01 00:46:24
  TRACK 41 AUDIO
    TITLE "Step1_Track36_41"
    INDEX 01 00:47:22
  TRACK 42 AUDIO
    TITLE "Step1_Track36_42"
    INDEX 01 00:47:41
  TRACK 43 AUDIO
    TITLE "Step1_Track36_43"
    INDEX 01 00:50:59
